<svg width="1920" height="1080" viewBox="0 0 1920 1080" fill="none"
  xmlns="http://www.w3.org/2000/svg">
  <path d="M0 0H1920V1080H0V0Z" fill="#EDE5D8" />
  <path
    d="M878 1079C894.454 943.366 939.904 807.628 984.045 670.329C1028.19 532.925 1100.01 393.856 1208.79 329.735C1317.47 265.509 1462.99 276.23 1587.34 235.634C1711.68 194.933 1814.84 103.019 1918 11V1079H878Z"
    fill="#D49A82" fill-opacity="0.5" />
  <path
    d="M381 0C350.438 38.8798 319.914 77.7597 306.36 126.889C292.843 176.055 296.333 235.433 269.411 269.411C242.488 303.389 185.116 311.893 135.132 326.264C85.1866 340.635 42.5933 360.799 0 381L0 0L381 0Z"
    fill="#D49A82" fill-opacity="0.5" />
  <path
    d="M302 0C277.775 30.8181 253.58 61.6363 242.836 100.578C232.122 139.55 234.889 186.616 213.549 213.549C192.209 240.481 146.732 247.222 107.113 258.613C67.5232 270.004 33.7616 285.988 0 302V0H302Z"
    fill="#5A8065" />
  <path
    d="M979 1080C993.888 957.193 1035.01 834.292 1074.95 709.976C1114.89 585.567 1179.88 459.65 1278.3 401.592C1376.63 343.44 1508.31 353.148 1620.81 316.39C1733.32 279.539 1826.66 196.317 1920 113V1080H979Z"
    fill="#D7BC8D" />
</svg>
