<svg width="640" height="844" viewBox="0 0 640 844" fill="none" xmlns="http://www.w3.org/2000/svg">
  <path fill-rule="evenodd" clip-rule="evenodd"
    d="M640 0H3.33786e-05L0 683.556V743.723L26.6667 747.065C53.3333 750.408 106.667 757.093 160 773.806C174.546 778.364 189.091 783.668 203.637 788.972C242.424 803.116 281.212 817.259 320 817.259C346.667 817.259 373.333 810.574 400 803.889C426.667 797.204 453.333 790.519 480 790.519C533.333 790.519 586.667 817.259 613.333 830.63L640 844V685.228V683.556V0Z"
    fill="#EDE5D8" />
  <mask id="mask0_180_14" style="mask-type:alpha" maskUnits="userSpaceOnUse" x="0" y="0" width="640"
    height="844">
    <path fill-rule="evenodd" clip-rule="evenodd"
      d="M640 0H3.33786e-05L0 683.556V743.723L26.6667 747.065C53.3333 750.408 106.667 757.093 160 773.806C174.546 778.364 189.091 783.668 203.637 788.972C242.424 803.116 281.212 817.259 320 817.259C346.667 817.259 373.333 810.574 400 803.889C426.667 797.204 453.333 790.519 480 790.519C533.333 790.519 586.667 817.259 613.333 830.63L640 844V685.228V683.556V0Z"
      fill="#EDE5D8" />
  </mask>
  <g mask="url(#mask0_180_14)">
    <path
      d="M168 824C175.468 761.644 196.095 699.24 216.128 636.118C236.161 572.949 268.76 509.013 318.127 479.534C367.45 450.007 433.497 454.936 489.93 436.273C546.363 417.561 593.181 375.304 640 333V824H168Z"
      fill="#D49A82" fill-opacity="0.5" />
    <path
      d="M220 870C227.563 807.644 248.452 745.24 268.74 682.118C289.028 618.949 322.041 555.013 372.036 525.534C421.986 496.007 488.872 500.936 546.022 482.273C603.172 463.561 650.586 421.304 698 379V870H220Z"
      fill="#D7BC8D" />
    <path
      d="M285 0C262.139 29.0833 239.306 58.1667 229.167 94.9167C219.056 131.694 221.667 176.111 201.528 201.528C181.389 226.944 138.472 233.306 101.083 244.056C63.7222 254.806 31.8611 269.889 0 285L0 0L285 0Z"
      fill="#D49A82" fill-opacity="0.5" />
    <path
      d="M226 0C207.872 23.0626 189.765 46.1251 181.725 75.2673C173.707 104.431 175.778 139.653 159.808 159.808C143.838 179.963 109.806 185.007 80.1573 193.532C50.5306 202.056 25.2653 214.017 0 226V0H226Z"
      fill="#5A8065" />
  </g>
</svg>
