<svg width="1920" height="1110" viewBox="0 0 1920 1110" fill="none"
  xmlns="http://www.w3.org/2000/svg">
  <g clip-path="url(#clip0_108_14)">
    <path fill-rule="evenodd" clip-rule="evenodd"
      d="M1920 0H0V822V930L80 936C160 942 320 954 480 984C523.636 992.18 567.273 1001.7 610.909 1011.22C727.273 1036.61 843.636 1062 960 1062C1040 1062 1120 1050 1200 1038C1280 1026 1360 1014 1440 1014C1600 1014 1760 1062 1840 1086L1920 1110V825V822V0Z"
      fill="#EDE5D8" />
    <mask id="mask0_108_14" style="mask-type:alpha" maskUnits="userSpaceOnUse" x="0" y="0"
      width="1920" height="1110">
      <path fill-rule="evenodd" clip-rule="evenodd"
        d="M1920 0H0V822V930L80 936C160 942 320 954 480 984C523.636 992.18 567.273 1001.7 610.909 1011.22C727.273 1036.61 843.636 1062 960 1062C1040 1062 1120 1050 1200 1038C1280 1026 1360 1014 1440 1014C1600 1014 1760 1062 1840 1086L1920 1110V825V822V0Z"
        fill="#EDE5D8" />
    </mask>
    <g mask="url(#mask0_108_14)">
      <path
        d="M941 1110C956.489 982.113 999.273 854.13 1040.82 724.67C1082.38 595.115 1149.99 463.989 1252.39 403.53C1354.69 342.972 1491.68 353.081 1608.73 314.803C1725.78 276.428 1822.89 189.763 1920 103V1110H941Z"
        fill="#D49A82" fill-opacity="0.5" />
      <path
        d="M310 0C285.133 31.6346 260.297 63.2693 249.269 103.243C238.271 143.247 241.111 191.56 219.206 219.206C197.3 246.852 150.619 253.771 109.95 265.464C69.3119 277.157 34.656 293.563 0 310V0H310Z"
        fill="#D49A82" fill-opacity="0.5" />
      <path
        d="M245 0C225.347 25.0014 205.719 50.0027 197.003 81.5947C188.311 113.211 190.556 151.394 173.243 173.243C155.931 195.092 119.038 200.561 86.8963 209.802C54.7788 219.043 27.3894 232.01 0 245V0H245Z"
        fill="#5A8065" />
      <path
        d="M1029 1109C1043.1 992.795 1082.03 876.501 1119.85 758.875C1157.67 641.155 1219.21 522.009 1312.4 467.073C1405.51 412.048 1530.19 421.234 1636.71 386.454C1743.24 351.583 1831.62 272.837 1920 194V1109H1029Z"
        fill="#D7BC8D" />
    </g>
  </g>
  <defs>
    <clipPath id="clip0_108_14">
      <rect width="1920" height="1110" fill="white" />
    </clipPath>
  </defs>
</svg>
