<svg width="42" height="42" viewBox="0 0 42 42" fill="none" xmlns="http://www.w3.org/2000/svg">
  <path
    d="M21.4572 8.30712C21.3351 8.1903 21.1726 8.12509 21.0036 8.12509C20.8346 8.12509 20.6721 8.1903 20.55 8.30712L5.448 22.734C5.38386 22.7953 5.33284 22.869 5.29801 22.9507C5.26318 23.0323 5.24528 23.1202 5.24538 23.2089L5.24292 36.749C5.24292 37.4452 5.51948 38.1129 6.01176 38.6051C6.50405 39.0974 7.17173 39.374 7.86792 39.374H15.7511C16.0992 39.374 16.4331 39.2357 16.6792 38.9896C16.9253 38.7434 17.0636 38.4096 17.0636 38.0615V26.9052C17.0636 26.7312 17.1328 26.5643 17.2558 26.4412C17.3789 26.3181 17.5458 26.249 17.7199 26.249H24.2824C24.4564 26.249 24.6233 26.3181 24.7464 26.4412C24.8695 26.5643 24.9386 26.7312 24.9386 26.9052V38.0615C24.9386 38.4096 25.0769 38.7434 25.323 38.9896C25.5692 39.2357 25.903 39.374 26.2511 39.374H34.131C34.8272 39.374 35.4949 39.0974 35.9872 38.6051C36.4795 38.1129 36.756 37.4452 36.756 36.749V23.2089C36.7561 23.1202 36.7382 23.0323 36.7034 22.9507C36.6686 22.869 36.6176 22.7953 36.5534 22.734L21.4572 8.30712Z"
    fill="#FF6250" />
  <path
    d="M40.2695 20.0279L34.1336 14.1577V5.24997C34.1336 4.90187 33.9953 4.56803 33.7492 4.32189C33.503 4.07575 33.1692 3.93747 32.8211 3.93747H28.8836C28.5355 3.93747 28.2016 4.07575 27.9555 4.32189C27.7094 4.56803 27.5711 4.90187 27.5711 5.24997V7.87497L22.8198 3.33208C22.3752 2.88255 21.714 2.62497 20.9996 2.62497C20.2875 2.62497 19.628 2.88255 19.1834 3.3329L1.73532 20.0263C1.22509 20.5184 1.16111 21.3281 1.6254 21.8613C1.74199 21.9959 1.88475 22.1053 2.04499 22.183C2.20523 22.2607 2.37959 22.3049 2.55748 22.3131C2.73536 22.3212 2.91303 22.293 3.07969 22.2303C3.24635 22.1676 3.3985 22.0716 3.52689 21.9483L20.5484 5.68309C20.6705 5.56627 20.833 5.50106 21.002 5.50106C21.171 5.50106 21.3335 5.56627 21.4556 5.68309L38.4788 21.9483C38.7295 22.1887 39.0654 22.32 39.4128 22.3132C39.7601 22.3064 40.0907 22.1622 40.3319 21.9122C40.8355 21.3904 40.7937 20.5291 40.2695 20.0279Z"
    fill="#FF6250" />
</svg>
