<svg width="151" height="300" viewBox="0 0 151 300" fill="none" xmlns="http://www.w3.org/2000/svg">
  <path
    d="M91.2352 3.44531C79.1766 17.6573 75.7313 52.9718 80.8992 103.36C83.9139 130.061 87.3592 155.47 88.6512 159.346C90.3739 163.222 73.1473 147.718 50.7527 125.323C28.3581 102.498 7.68623 83.9796 5.10224 83.9796C-7.38704 83.9796 4.24091 131.783 27.0661 176.573C40.8474 204.135 137.316 305.772 143.346 299.743C150.236 292.852 152.82 173.127 146.36 145.134C140.331 116.71 103.724 6.0293 98.9872 0.861328C97.2645 -0.861328 93.8192 0 91.2352 3.44531ZM120.09 79.673C143.776 151.163 148.514 180.018 144.207 228.252C142.054 249.786 139.9 262.275 139.039 256.245C138.178 250.216 134.732 232.99 131.287 217.486C127.842 201.982 120.951 166.237 116.214 137.813C111.476 109.389 104.586 74.9357 101.14 61.1544C93.8192 32.7305 92.5272 15.5039 98.5565 21.5332C100.71 24.1172 110.615 49.9571 120.09 79.673ZM105.447 118.433C111.476 150.302 119.228 190.784 123.104 208.011C131.287 244.618 129.134 252.37 119.228 223.084C115.352 211.456 107.17 187.77 100.71 170.543C91.6658 144.273 89.0819 128.769 87.7899 86.5636C85.6365 24.9785 89.0819 31.4385 105.447 118.433ZM55.49 139.966C84.3446 171.405 107.6 211.887 118.367 247.632C121.812 258.399 121.812 258.399 112.338 250.216C107.6 245.479 96.4032 229.544 87.7899 214.471C79.1766 199.398 67.118 180.449 60.658 173.127C48.1687 159.346 17.1609 112.403 17.1609 107.666C17.1609 100.345 27.9275 109.389 55.49 139.966ZM27.4968 139.535C36.1101 153.317 46.0154 167.098 49.8914 170.543C53.3367 173.558 66.2566 192.507 78.3152 212.748C89.9432 232.99 102.863 253.662 107.17 258.829C111.046 263.567 98.9872 252.37 80.8992 233.42C48.5994 199.828 27.9275 167.529 15.0075 131.783C11.5622 121.878 9.83955 114.126 10.7009 114.126C11.5622 114.126 19.3142 125.323 27.4968 139.535Z"
    fill="#111827" />
</svg>