<svg width="1920" height="136" viewBox="0 0 1920 136" fill="none" xmlns="http://www.w3.org/2000/svg">
  <path fill-rule="evenodd" clip-rule="evenodd"
    d="M1920 136L1840 126.286C1760 116.571 1600 97.1429 1440 97.1429C1280 97.1429 1120 116.571 960 110.095C800 103.619 640 71.2381 480 55.0476C320 38.8571 160 38.8571 80 38.8571L-2.86102e-05 38.8571V-6.91414e-06H80C160 -6.91414e-06 320 -6.91414e-06 480 -6.91414e-06C640 -6.91414e-06 800 -6.91414e-06 960 -6.91414e-06C1120 -6.91414e-06 1280 -6.91414e-06 1440 -6.91414e-06C1600 -6.91414e-06 1760 -6.91414e-06 1840 -6.91414e-06H1920V136Z"
    fill="#EDE5D8" />
</svg>
